<svg xmlns="http://www.w3.org/2000/svg" viewBox="0 0 800 500" role="img" aria-label="Outlook Calendar preview">
  <rect width="800" height="500" fill="#f1f5f9"/>
  <rect x="40" y="40" width="720" height="420" rx="12" fill="#ffffff" stroke="#e2e8f0" stroke-width="2"/>
  <rect x="40" y="40" width="720" height="48" rx="12" fill="#0F6CBD"/>
  <rect x="40" y="64" width="720" height="24" fill="#0F6CBD"/>
  <circle cx="68" cy="64" r="6" fill="#ffffff" opacity="0.8"/>
  <circle cx="90" cy="64" r="6" fill="#ffffff" opacity="0.8"/>
  <circle cx="112" cy="64" r="6" fill="#ffffff" opacity="0.8"/>
  <text x="400" y="71" font-family="Arial, sans-serif" font-size="18" font-weight="700" fill="#ffffff" text-anchor="middle">Outlook Calendar</text>
  <g font-family="Arial, sans-serif" font-size="12" fill="#94a3b8" text-anchor="middle">
    <text x="135" y="125">Mon</text><text x="240" y="125">Tue</text><text x="345" y="125">Wed</text><text x="450" y="125">Thu</text><text x="555" y="125">Fri</text>
  </g>
  <line x1="80" y1="140" x2="720" y2="140" stroke="#e2e8f0" stroke-width="1"/>
  <g stroke="#eef2f7" stroke-width="1">
    <line x1="187" y1="140" x2="187" y2="430"/><line x1="292" y1="140" x2="292" y2="430"/><line x1="397" y1="140" x2="397" y2="430"/><line x1="502" y1="140" x2="502" y2="430"/><line x1="607" y1="140" x2="607" y2="430"/>
    <line x1="80" y1="200" x2="720" y2="200"/><line x1="80" y1="260" x2="720" y2="260"/><line x1="80" y1="320" x2="720" y2="320"/><line x1="80" y1="380" x2="720" y2="380"/>
  </g>
  <rect x="92" y="150" width="88" height="44" rx="6" fill="#0F6CBD" opacity="0.9"/>
  <rect x="302" y="210" width="88" height="60" rx="6" fill="#0F6CBD" opacity="0.6"/>
  <rect x="512" y="270" width="88" height="100" rx="6" fill="#0F6CBD" opacity="0.8"/>
  <rect x="407" y="330" width="88" height="40" rx="6" fill="#0F6CBD" opacity="0.5"/>
</svg>
