<svg xmlns="http://www.w3.org/2000/svg" viewBox="0 0 800 500" role="img" aria-label="Zoom preview">
  <rect width="800" height="500" fill="#f1f5f9"/>
  <rect x="40" y="40" width="720" height="420" rx="12" fill="#ffffff" stroke="#e2e8f0" stroke-width="2"/>
  <rect x="40" y="40" width="720" height="48" rx="12" fill="#2D8CFF"/>
  <rect x="40" y="64" width="720" height="24" fill="#2D8CFF"/>
  <circle cx="68" cy="64" r="6" fill="#ffffff" opacity="0.8"/>
  <circle cx="90" cy="64" r="6" fill="#ffffff" opacity="0.8"/>
  <circle cx="112" cy="64" r="6" fill="#ffffff" opacity="0.8"/>
  <text x="400" y="71" font-family="Arial, sans-serif" font-size="18" font-weight="700" fill="#ffffff" text-anchor="middle">Zoom</text>
  <rect x="80" y="120" width="430" height="300" rx="10" fill="#0f172a"/>
  <circle cx="295" cy="240" r="54" fill="#2D8CFF" opacity="0.85"/>
  <text x="295" y="252" font-family="Arial, sans-serif" font-size="40" font-weight="700" fill="#ffffff" text-anchor="middle">A</text>
  <rect x="110" y="360" width="120" height="36" rx="18" fill="#2D8CFF"/>
  <rect x="250" y="360" width="120" height="36" rx="18" fill="#334155"/>
  <rect x="390" y="360" width="80" height="36" rx="18" fill="#ef4444"/>
  <g fill="#1e293b">
    <rect x="530" y="120" width="190" height="88" rx="8"/>
    <rect x="530" y="220" width="190" height="88" rx="8"/>
    <rect x="530" y="320" width="190" height="88" rx="8"/>
  </g>
  <g fill="#2D8CFF" opacity="0.8">
    <circle cx="560" cy="150" r="14"/><circle cx="560" cy="250" r="14"/><circle cx="560" cy="350" r="14"/>
  </g>
</svg>
